# xmcd
# Copyright (C) 1995-1998 Ti Kan
#
# Track frame offsets:
#       150
#       16651
#       30710
#       42570
#       65217
#       99576
#       117469
#       133173
#       148897
#       168653
#       193821
#       210011
#       224210
#       255092
#       272144
#       291246
#       311970
#
# Disc length: 4439 seconds
#
# Revision: 13
# Processed by: cddbd v1.5PL3 Copyright (c) Steve Scherf et al.
# Submitted via: CD-Transfer v1.0
#
DISCID=16115511
DTITLE=Rok'n'band - Denyken 2
DYEAR=1900
DGENRE=
TTITLE0=Èuvajte Nas, Pazite Nas
TTITLE1=Trese, Lupa, Udara
TTITLE2=Sunce
TTITLE3=The Good One
TTITLE4=Narco
TTITLE5=Iste Cipele
TTITLE6=
TTITLE7=Ljubav
TTITLE8=In Memoriam
TTITLE9=Samo Noæas Da Zaboravim Tugu
TTITLE10=Ain't No Money
TTITLE11=Behind The Mask
TTITLE12=Budi Ponosan
TTITLE13=Srebrni
TTITLE14=Otkazani Let
TTITLE15=Ova Pjesma Zna
TTITLE16=Suspicious Minds
EXTD=
EXTT0=
EXTT1=
EXTT2=
EXTT3=
EXTT4=
EXTT5=
EXTT6=
EXTT7=
EXTT8=
EXTT9=
EXTT10=
EXTT11=
EXTT12=
EXTT13=
EXTT14=
EXTT15=
EXTT16=
PLAYORDER=
